<svg viewBox="0 0 600 700" xmlns="http://www.w3.org/2000/svg">
    <!-- Circular background -->
    <circle cx="300" cy="300" r="280" fill="#FFE4B5" opacity="0.3"/>
    <circle cx="300" cy="300" r="250" fill="#87CEEB" opacity="0.2"/>

    <!-- Main portrait group -->
    <g transform="translate(150, 80)">
        <!-- Shoulders and body base -->
        <path d="M-30 420 C-30 400 0 380 40 380 L260 380 C300 380 330 400 330 420 L330 520 L-30 520 Z" 
              fill="#2F4F4F" stroke="#000" stroke-width="12"/>
        
        <!-- Simple shirt -->
        <path d="M90 380 L90 500 L210 500 L210 380" 
              fill="#FFF" stroke="#000" stroke-width="8"/>
        
        <!-- Simple tie -->
        <path d="M145 380 L145 500 L155 500 L155 380" 
              fill="#8B0000" stroke="#000" stroke-width="6"/>
        
        <!-- Face outline - 3/4 view -->
        <path d="M100 80 C100 50 130 20 180 20 C250 20 290 60 290 130 L290 250 C290 320 250 360 180 360 L140 360 C70 360 40 320 40 250 L40 160 C40 110 70 80 100 80" 
              fill="#FFF" stroke="#000" stroke-width="14"/>
        
        <!-- Face shadow for dimension -->
        <path d="M200 80 C250 80 290 120 290 190 L290 250 C290 320 250 360 180 360 L140 360 C140 360 200 320 200 250 Z" 
              fill="#000" opacity="0.12"/>
        
        <!-- Hair -->
        <path d="M100 80 C100 40 140 10 200 10 C260 10 290 40 290 90 L290 130 C250 110 210 110 170 130 C130 110 100 90 100 80" 
              fill="#D2691E" stroke="#000" stroke-width="12"/>
        <!-- Hair texture lines -->
        <path d="M120 60 Q160 40 200 60 M140 70 Q180 50 220 70" 
              fill="none" stroke="#000" stroke-width="4" opacity="0.4"/>
        
        <!-- Black sunglasses - wayfarer style properly centered -->
        <g id="wayfarers">
            <!-- Left lens (partial view) -->
            <path d="M25 155 L25 185 Q25 195 35 195 L85 195 Q95 195 95 185 L95 155 Q95 145 85 145 L35 145 Q25 145 25 155" 
                  fill="#000" stroke="#000" stroke-width="12"/>
            <!-- Right lens (main view) -->
            <path d="M115 155 L115 185 Q115 195 125 195 L180 195 Q190 195 190 185 L190 155 Q190 145 180 145 L125 145 Q115 145 115 155" 
                  fill="#000" stroke="#000" stroke-width="12"/>
            <!-- Bridge centered over nose -->
            <rect x="95" y="165" width="20" height="10" fill="#000" stroke="#000" stroke-width="8"/>
            <!-- Temple/stem - straight to face edge -->
            <rect x="190" y="165" width="100" height="10" fill="#000" stroke="#000" stroke-width="10"/>
            
            <!-- Dark lenses with wayfarer shape -->
            <path d="M32 160 L32 183 Q32 188 37 188 L83 188 Q88 188 88 183 L88 160 Q88 155 83 155 L37 155 Q32 155 32 160" 
                  fill="#1a1a1a" opacity="0.95"/>
            <path d="M122 160 L122 183 Q122 188 127 188 L178 188 Q183 188 183 183 L183 160 Q183 155 178 155 L127 155 Q122 155 122 160" 
                  fill="#1a1a1a" opacity="0.95"/>
        </g>
        
        <!-- Nose - profile -->
        <path d="M90 195 L80 220 L85 235 L95 232" 
              fill="#FFF" stroke="#000" stroke-width="10"/>
        
        <!-- Mouth -->
        <path d="M105 265 Q130 275 155 270" fill="none" stroke="#000" stroke-width="12" stroke-linecap="round"/>
        
        <!-- Goatee suggestion with thick lines -->
        <!-- Right side line following face shadow curve -->
        <path d="M190 235 Q185 260 180 285 Q175 305 170 315" 
              fill="none" stroke="#D2691E" stroke-width="10" opacity="0.7" stroke-linecap="round"/>
        <!-- Line above lip below nose -->
        <line x1="105" y1="250" x2="155" y2="245" stroke="#D2691E" stroke-width="8" opacity="0.7"/>
        <!-- Connected chin lines forming goatee outline -->
        <path d="M85 275 L85 315 Q85 330 95 330 L145 335 Q150 335 155 330" 
              fill="none" stroke="#D2691E" stroke-width="12" opacity="0.7" stroke-linecap="round"/>
        
        <!-- Clean jaw line -->
        <line x1="95" y1="275" x2="95" y2="315" stroke="#000" stroke-width="10"/>
        <line x1="95" y1="315" x2="150" y2="325" stroke="#000" stroke-width="10"/>
    </g>
    
    <!-- Subtle comic book elements -->
    <g opacity="0.4">
        <line x1="480" y1="200" x2="520" y2="190" stroke="#000" stroke-width="6"/>
        <line x1="480" y1="230" x2="525" y2="225" stroke="#000" stroke-width="6"/>
        <line x1="470" y1="260" x2="520" y2="260" stroke="#000" stroke-width="6"/>
    </g>
</svg>