<svg width="32" height="32" viewBox="0 0 32 32" xmlns="http://www.w3.org/2000/svg">
  <!-- Favicon: simplified RSP mark -->
  <rect x="4" y="4" width="24" height="24" rx="3" fill="none" stroke="currentColor" stroke-width="1.5"/>
  <g transform="translate(8, 8)">
    <!-- Simplified RSP -->
    <path d="M 0 0 L 0 8 L 2 8 L 2 4.5 L 3.5 4.5 Q 4.5 4.5, 4.5 3 Q 4.5 1.5, 3.5 1.5 L 2 1.5 L 2 0 Z" fill="currentColor"/>
    <path d="M 6 0 L 8 0 Q 9 0, 9 1.5 L 9 2.5 Q 9 3.5, 8 3.5 L 7 3.5 Q 6.5 3.5, 6.5 4 Q 6.5 4.5, 7 4.5 L 9 4.5" fill="none" stroke="currentColor" stroke-width="1" stroke-linecap="round"/>
    <path d="M 6 8 L 8 8 Q 9 8, 9 6.5 L 9 5.5 Q 9 4.5, 8 4.5 L 7 4.5 Q 6.5 4.5, 6.5 4 Q 6.5 3.5, 7 3.5 L 9 3.5" fill="none" stroke="currentColor" stroke-width="1" stroke-linecap="round"/>
    <path d="M 11 0 L 11 8 L 13 8 L 13 4.5 L 14.5 4.5 Q 15.5 4.5, 15.5 3 Q 15.5 1.5, 14.5 1.5 L 13 1.5 L 13 0 Z" fill="currentColor"/>
  </g>
</svg>
