<svg width="32" height="32" viewBox="0 0 32 32" xmlns="http://www.w3.org/2000/svg">
  <!-- Favicon: clearly legible RSP -->
  <rect x="2" y="2" width="28" height="28" rx="5" fill="none" stroke="currentColor" stroke-width="1.5"/>
  <g transform="translate(5, 5)">
    <!-- R -->
    <path d="M 0 0 L 0 10 L 2.5 10 L 2.5 5.5 Q 2.5 4, 3.5 4 Q 4.5 4, 4.5 5.5 Q 4.5 7, 3.5 7 L 2.5 7" 
          fill="none" stroke="currentColor" stroke-width="1.2" stroke-linecap="round" stroke-linejoin="round"/>
    <path d="M 2.5 5.5 L 3.5 5.5 Q 4.5 5.5, 4.5 6.5 Q 4.5 7.5, 3.5 7.5 L 2.5 7.5" 
          fill="none" stroke="currentColor" stroke-width="1.2" stroke-linecap="round" stroke-linejoin="round"/>
    <!-- S -->
    <path d="M 6.5 0 Q 7.5 0, 7.5 1.5 L 7.5 2.5 Q 7.5 4, 6.5 4 L 5.5 4 Q 5 4, 5 5 Q 5 6, 5.5 6 L 7.5 6" 
          fill="none" stroke="currentColor" stroke-width="1.2" stroke-linecap="round" stroke-linejoin="round"/>
    <path d="M 6.5 10 Q 7.5 10, 7.5 8.5 L 7.5 7.5 Q 7.5 6, 6.5 6 L 5.5 6 Q 5 6, 5 5 Q 5 4, 5.5 4 L 7.5 4" 
          fill="none" stroke="currentColor" stroke-width="1.2" stroke-linecap="round" stroke-linejoin="round"/>
    <!-- P -->
    <path d="M 9.5 0 L 9.5 10 L 12 10 L 12 5.5 Q 12 4, 13 4 Q 14 4, 14 5.5 Q 14 7, 13 7 L 12 7" 
          fill="none" stroke="currentColor" stroke-width="1.2" stroke-linecap="round" stroke-linejoin="round"/>
    <path d="M 12 5.5 L 13 5.5 Q 14 5.5, 14 6.5 Q 14 7.5, 13 7.5 L 12 7.5" 
          fill="none" stroke="currentColor" stroke-width="1.2" stroke-linecap="round" stroke-linejoin="round"/>
  </g>
</svg>
