<svg width="32" height="32" viewBox="0 0 32 32" xmlns="http://www.w3.org/2000/svg">
  <!-- Favicon: flowing RSP in rounded square -->
  <rect x="2" y="2" width="28" height="28" rx="5" fill="none" stroke="currentColor" stroke-width="1.5"/>
  <g transform="translate(5, 5)">
    <path d="M 0 0 L 0 10 L 3 10 L 3 6 Q 3 4, 4.5 4 Q 5.5 4, 5.5 5.5 Q 5.5 7, 4.5 7 L 3 7 Q 4 7, 5 7.5 Q 6 8, 6 9.5 Q 6 11, 5 11 Q 4 11, 3 10.5 Q 4 11, 5.5 11 Q 7 11, 7 9.5 Q 7 8, 5.5 8 Q 4 8, 3 8 Q 4.5 8, 6 8 Q 7.5 8, 7.5 6.5 Q 7.5 5, 6 5 Q 4.5 5, 3 5.5 L 3 0 L 6 0 L 6 5 Q 6 6.5, 4.5 6.5 Q 3 6.5, 3 5 L 3 0" 
          fill="none" stroke="currentColor" stroke-width="1.2" stroke-linecap="round" stroke-linejoin="round"/>
  </g>
</svg>
