<svg width="200" height="200" viewBox="0 0 200 200" xmlns="http://www.w3.org/2000/svg" role="img" aria-label="RSP Management LLC">
  <!-- Rounded square logo - flowing RSP monogram -->
  <g transform="translate(30, 30)">
    <rect x="0" y="0" width="140" height="140" rx="24" fill="none" stroke="#0a0a0a" stroke-width="5"/>
    <g transform="translate(20, 20)">
      <!-- Single flowing line forming RSP -->
      <path d="M 0 0
               L 0 48
               L 16 48
               L 16 28
               Q 16 20, 22 20
               Q 28 20, 28 26
               Q 28 32, 22 32
               L 16 32
               Q 20 32, 24 34
               Q 28 36, 28 42
               Q 28 48, 24 48
               Q 20 48, 16 46
               Q 20 48, 26 48
               Q 32 48, 32 42
               Q 32 36, 26 36
               Q 20 36, 16 36
               Q 22 36, 28 36
               Q 34 36, 34 30
               Q 34 24, 28 24
               Q 22 24, 16 26
               L 16 0
               L 32 0
               L 32 24
               Q 32 30, 26 30
               Q 20 30, 20 24
               L 20 0" 
            fill="none" stroke="#0a0a0a" stroke-width="5" stroke-linecap="round" stroke-linejoin="round"/>
    </g>
  </g>
  <style>
    @media (prefers-color-scheme: dark) {
      rect, path { stroke: #f5f5f5 !important; }
    }
  </style>
</svg>
