<svg width="40" height="40" viewBox="0 0 40 40" xmlns="http://www.w3.org/2000/svg" role="img" aria-label="RSP Management LLC">
  <!-- Rounded square with clearly legible RSP monogram -->
  <rect x="2" y="2" width="36" height="36" rx="8" fill="none" stroke="#0a0a0a" stroke-width="2"/>
  <g transform="translate(6, 6)">
    <!-- R - clearly formed -->
    <path d="M 0 0 L 0 12 L 3.5 12 L 3.5 6.5 Q 3.5 5, 5 5 Q 6.5 5, 6.5 6.5 Q 6.5 8, 5 8 L 3.5 8" 
          fill="none" stroke="#0a0a0a" stroke-width="2" stroke-linecap="round" stroke-linejoin="round"/>
    <path d="M 3.5 6.5 L 5.5 6.5 Q 6.5 6.5, 6.5 7.5 Q 6.5 8.5, 5.5 8.5 L 3.5 8.5" 
          fill="none" stroke="#0a0a0a" stroke-width="2" stroke-linecap="round" stroke-linejoin="round"/>
    <!-- S - flowing but clear -->
    <path d="M 8.5 0 Q 10.5 0, 10.5 2 L 10.5 3.5 Q 10.5 5, 8.5 5 L 7 5 Q 6 5, 6 6 Q 6 7, 7 7 L 10.5 7" 
          fill="none" stroke="#0a0a0a" stroke-width="2" stroke-linecap="round" stroke-linejoin="round"/>
    <path d="M 8.5 12 Q 10.5 12, 10.5 10 L 10.5 8.5 Q 10.5 7, 8.5 7 L 7 7 Q 6 7, 6 6 Q 6 5, 7 5 L 10.5 5" 
          fill="none" stroke="#0a0a0a" stroke-width="2" stroke-linecap="round" stroke-linejoin="round"/>
    <!-- P - clearly formed -->
    <path d="M 12.5 0 L 12.5 12 L 16 12 L 16 6.5 Q 16 5, 17.5 5 Q 19 5, 19 6.5 Q 19 8, 17.5 8 L 16 8" 
          fill="none" stroke="#0a0a0a" stroke-width="2" stroke-linecap="round" stroke-linejoin="round"/>
    <path d="M 16 6.5 L 17.5 6.5 Q 19 6.5, 19 7.5 Q 19 8.5, 17.5 8.5 L 16 8.5" 
          fill="none" stroke="#0a0a0a" stroke-width="2" stroke-linecap="round" stroke-linejoin="round"/>
  </g>
  <style>
    @media (prefers-color-scheme: dark) {
      rect, path { stroke: #f5f5f5 !important; }
    }
  </style>
</svg>
