<svg width="40" height="40" viewBox="0 0 40 40" xmlns="http://www.w3.org/2000/svg" role="img" aria-label="RSP Management LLC">
  <!-- Square logo mark: RSP monogram in geometric box -->
  <rect x="6" y="6" width="28" height="28" rx="4" fill="none" stroke="currentColor" stroke-width="2"/>
  <g transform="translate(10, 10)">
    <!-- R shape -->
    <path d="M 0 0 L 0 12 L 3 12 L 3 6.5 L 5.5 6.5 Q 7 6.5, 7 4.5 Q 7 2.5, 5.5 2.5 L 3 2.5 L 3 0 Z" fill="currentColor"/>
    <path d="M 3 4.5 L 5 4.5 Q 5.5 4.5, 5.5 5.5 Q 5.5 6.5, 5 6.5 L 3 6.5" fill="none" stroke="currentColor" stroke-width="0.4"/>
    <!-- S shape -->
    <path d="M 9 0 L 12 0 Q 13.5 0, 13.5 2 L 13.5 3.5 Q 13.5 5, 12 5 L 10.5 5 Q 9.5 5, 9.5 6 Q 9.5 7, 10.5 7 L 13.5 7" fill="none" stroke="currentColor" stroke-width="1.2" stroke-linecap="round" stroke-linejoin="round"/>
    <path d="M 9 12 L 12 12 Q 13.5 12, 13.5 10 L 13.5 8.5 Q 13.5 7, 12 7 L 10.5 7 Q 9.5 7, 9.5 6 Q 9.5 5, 10.5 5 L 13.5 5" fill="none" stroke="currentColor" stroke-width="1.2" stroke-linecap="round" stroke-linejoin="round"/>
    <!-- P shape -->
    <path d="M 15 0 L 15 12 L 18 12 L 18 6.5 L 20.5 6.5 Q 22 6.5, 22 4.5 Q 22 2.5, 20.5 2.5 L 18 2.5 L 18 0 Z" fill="currentColor"/>
    <path d="M 18 4.5 L 19.5 4.5 Q 20 4.5, 20 5.5 Q 20 6.5, 19.5 6.5 L 18 6.5" fill="none" stroke="currentColor" stroke-width="0.4"/>
  </g>
</svg>
