<svg width="200" height="40" viewBox="0 0 200 40" xmlns="http://www.w3.org/2000/svg" role="img" aria-label="RSP Management LLC">
  <!-- Logo mark: simplified RSP monogram -->
  <g transform="translate(0, 10)" fill="#0a0a0a">
    <!-- R -->
    <rect x="0" y="0" width="3" height="10"/>
    <rect x="3" y="0" width="4" height="3"/>
    <rect x="3" y="4.5" width="3" height="2"/>
    <rect x="5.5" y="4.5" width="1.5" height="1.5"/>
    <!-- S -->
    <path d="M 10 0 L 14 0 Q 15.5 0, 15.5 2 L 15.5 3.5 Q 15.5 5, 14 5 L 12 5 Q 11 5, 11 6 Q 11 7, 12 7 L 15.5 7" fill="none" stroke="#0a0a0a" stroke-width="1.2" stroke-linecap="round" stroke-linejoin="round"/>
    <path d="M 10 10 L 14 10 Q 15.5 10, 15.5 8 L 15.5 6.5 Q 15.5 5, 14 5 L 12 5 Q 11 5, 11 6 Q 11 7, 12 7 L 15.5 7" fill="none" stroke="#0a0a0a" stroke-width="1.2" stroke-linecap="round" stroke-linejoin="round"/>
    <!-- P -->
    <rect x="18" y="0" width="3" height="10"/>
    <rect x="21" y="0" width="4" height="3"/>
    <rect x="21" y="4.5" width="3" height="2"/>
    <rect x="23.5" y="4.5" width="1.5" height="1.5"/>
  </g>
  <!-- Wordmark -->
  <text x="30" y="28" font-family="Inter, system-ui, -apple-system" font-size="18" font-weight="700" fill="#0a0a0a" letter-spacing="-0.02em">Ryan Pretzer</text>
  <style>
    @media (prefers-color-scheme: dark) {
      g, text { fill: #f5f5f5 !important; }
      path { stroke: #f5f5f5 !important; }
    }
  </style>
</svg>
